<svg width="75" height="75" viewBox="0 0 75 75" fill="none" xmlns="http://www.w3.org/2000/svg">
<path d="M37.3942 0.100586C47.2766 0.100587 56.5686 3.94937 63.5566 10.9374C70.5463 17.9254 74.395 27.2173 74.395 37.0998C74.395 46.9822 70.5462 56.2758 63.5583 63.2638C56.5703 70.2518 47.2783 74.1006 37.3942 74.1006C27.5101 74.1006 18.2198 70.2518 11.2318 63.2638C4.2438 56.2758 0.395027 46.9838 0.395027 37.1014C0.395028 27.219 4.2438 17.927 11.2318 10.939C18.2198 3.94937 27.5118 0.100585 37.3942 0.100586ZM37.3942 71.5866C46.6051 71.5866 55.2669 67.9991 61.7802 61.4858C68.2935 54.9725 71.881 46.3123 71.881 37.0998C71.881 27.8872 68.2936 19.227 61.7802 12.7137C55.2669 6.20041 46.6068 2.61297 37.3942 2.61297C28.1816 2.61296 19.5215 6.20041 13.0082 12.7137C6.49485 19.227 2.9074 27.8872 2.9074 37.0998C2.9074 46.3123 6.49484 54.9708 13.0082 61.4858C19.5231 67.9991 28.1833 71.5866 37.3942 71.5866Z" fill="url(#paint0_linear)"/>
<path d="M37.3949 71.7136C56.5111 71.7136 72.0078 56.2169 72.0078 37.1007C72.0078 17.9845 56.5111 2.48779 37.3949 2.48779C18.2787 2.48779 2.782 17.9845 2.782 37.1007C2.782 56.2169 18.2787 71.7136 37.3949 71.7136Z" fill="#121212"/>
<g clip-path="url(#clip0)">
<path d="M48.2292 29.6875C47.4271 29.2292 46.3958 29.2292 45.4792 29.6875L39.0625 33.4687L34.7083 35.875L28.4062 39.6562C27.6042 40.1146 26.5729 40.1146 25.6562 39.6562L20.7292 36.6771C19.9271 36.2187 19.3542 35.3021 19.3542 34.2708V28.5417C19.3542 27.625 19.8125 26.7083 20.7292 26.1354L25.6562 23.2708C26.4583 22.8125 27.4896 22.8125 28.4062 23.2708L33.3333 26.25C34.1354 26.7083 34.7083 27.625 34.7083 28.6562V32.4375L39.0625 29.9167V26.0208C39.0625 25.1042 38.6042 24.1875 37.6875 23.6146L28.5208 18.2292C27.7187 17.7708 26.6875 17.7708 25.7708 18.2292L16.375 23.7292C15.4583 24.1875 15 25.1042 15 26.0208V36.7917C15 37.7083 15.4583 38.625 16.375 39.1979L25.6562 44.5833C26.4583 45.0417 27.4896 45.0417 28.4062 44.5833L34.7083 40.9167L39.0625 38.3958L45.3646 34.7292C46.1667 34.2708 47.1979 34.2708 48.1146 34.7292L53.0417 37.5937C53.8437 38.0521 54.4167 38.9687 54.4167 40V45.7292C54.4167 46.6458 53.9583 47.5625 53.0417 48.1354L48.2292 51C47.4271 51.4583 46.3958 51.4583 45.4792 51L40.5521 48.1354C39.75 47.6771 39.1771 46.7604 39.1771 45.7292V42.0625L34.8229 44.5833V48.3646C34.8229 49.2812 35.2812 50.1979 36.1979 50.7708L45.4792 56.1562C46.2812 56.6146 47.3125 56.6146 48.2292 56.1562L57.5104 50.7708C58.3125 50.3125 58.8854 49.3958 58.8854 48.3646V37.4792C58.8854 36.5625 58.4271 35.6458 57.5104 35.0729L48.2292 29.6875Z" fill="#8247E5"/>
</g>
<defs>
<linearGradient id="paint0_linear" x1="63.5579" y1="10.9376" x2="11.232" y2="63.2635" gradientUnits="userSpaceOnUse">
<stop/>
<stop offset="1" stop-color="#515151"/>
</linearGradient>
<clipPath id="clip0">
<rect width="44" height="38.3854" fill="white" transform="translate(15 18)"/>
</clipPath>
</defs>
</svg>
