<svg width="135" height="39" viewBox="0 0 135 39" fill="none" xmlns="http://www.w3.org/2000/svg">
<path d="M23.3922 13.094V11.384H28.1802C28.8402 11.384 29.3682 11.198 29.7642 10.826C30.1602 10.442 30.3582 9.926 30.3582 9.278C30.3582 8.606 30.1602 8.084 29.7642 7.712C29.3682 7.34 28.8402 7.154 28.1802 7.154H23.6802V17H21.6102V5.336H28.0362C28.6482 5.336 29.2182 5.42 29.7462 5.588C30.2862 5.744 30.7542 5.984 31.1502 6.308C31.5582 6.632 31.8762 7.04 32.1042 7.532C32.3322 8.024 32.4462 8.606 32.4462 9.278C32.4462 9.938 32.3322 10.514 32.1042 11.006C31.8762 11.486 31.5582 11.882 31.1502 12.194C30.7542 12.506 30.2862 12.734 29.7462 12.878C29.2182 13.022 28.6482 13.094 28.0362 13.094H23.3922ZM41.6447 14.048H43.6067C43.5107 14.66 43.2647 15.206 42.8687 15.686C42.4847 16.154 41.9687 16.526 41.3207 16.802C40.6727 17.066 39.8927 17.198 38.9807 17.198C37.9367 17.198 37.0127 17.012 36.2087 16.64C35.4047 16.256 34.7687 15.716 34.3007 15.02C33.8447 14.324 33.6167 13.496 33.6167 12.536C33.6167 11.588 33.8387 10.76 34.2827 10.052C34.7387 9.344 35.3627 8.798 36.1547 8.414C36.9467 8.03 37.8647 7.838 38.9087 7.838C39.9767 7.838 40.8707 8.03 41.5907 8.414C42.3227 8.786 42.8627 9.35 43.2107 10.106C43.5587 10.85 43.7027 11.792 43.6427 12.932H35.6687C35.7287 13.436 35.8967 13.886 36.1727 14.282C36.4487 14.678 36.8207 14.99 37.2887 15.218C37.7567 15.446 38.3087 15.56 38.9447 15.56C39.6407 15.56 40.2227 15.422 40.6907 15.146C41.1707 14.858 41.4887 14.492 41.6447 14.048ZM38.8547 9.476C38.0267 9.476 37.3487 9.674 36.8207 10.07C36.2927 10.466 35.9507 10.976 35.7947 11.6H41.6087C41.5487 10.928 41.2727 10.406 40.7807 10.034C40.2887 9.662 39.6467 9.476 38.8547 9.476ZM49.4726 15.614C48.6086 15.614 47.8346 15.464 47.1506 15.164C46.4666 14.864 45.9266 14.426 45.5306 13.85C45.1466 13.274 44.9546 12.584 44.9546 11.78C44.9546 10.976 45.1466 10.28 45.5306 9.692C45.9146 9.104 46.4426 8.648 47.1146 8.324C47.7986 8 48.5846 7.838 49.4726 7.838C49.7246 7.838 49.9646 7.856 50.1926 7.892C50.4326 7.928 50.6606 7.976 50.8766 8.036L55.1066 8.054V9.746C54.5306 9.746 53.9486 9.662 53.3606 9.494C52.7726 9.326 52.2566 9.14 51.8126 8.936L51.7586 8.828C52.1666 9.032 52.5326 9.284 52.8566 9.584C53.1926 9.872 53.4566 10.202 53.6486 10.574C53.8406 10.946 53.9366 11.372 53.9366 11.852C53.9366 12.632 53.7446 13.304 53.3606 13.868C52.9886 14.432 52.4666 14.864 51.7946 15.164C51.1226 15.464 50.3486 15.614 49.4726 15.614ZM52.3526 20.654V20.24C52.3526 19.664 52.1786 19.256 51.8306 19.016C51.4826 18.776 50.9966 18.656 50.3726 18.656H47.9066C47.4146 18.656 46.9946 18.614 46.6466 18.53C46.3106 18.458 46.0406 18.344 45.8366 18.188C45.6326 18.044 45.4826 17.87 45.3866 17.666C45.2906 17.462 45.2426 17.24 45.2426 17C45.2426 16.532 45.3926 16.178 45.6926 15.938C45.9926 15.686 46.3826 15.524 46.8626 15.452C47.3546 15.38 47.8766 15.368 48.4286 15.416L49.4726 15.614C48.7526 15.638 48.2066 15.704 47.8346 15.812C47.4746 15.908 47.2946 16.106 47.2946 16.406C47.2946 16.586 47.3666 16.73 47.5106 16.838C47.6546 16.946 47.8586 17 48.1226 17H50.7146C51.4586 17 52.1066 17.084 52.6586 17.252C53.2106 17.432 53.6366 17.726 53.9366 18.134C54.2366 18.554 54.3866 19.124 54.3866 19.844V20.654H52.3526ZM49.4726 14.03C49.9406 14.03 50.3606 13.946 50.7326 13.778C51.1166 13.598 51.4166 13.34 51.6326 13.004C51.8486 12.668 51.9566 12.26 51.9566 11.78C51.9566 11.3 51.8486 10.892 51.6326 10.556C51.4166 10.208 51.1226 9.944 50.7506 9.764C50.3786 9.584 49.9526 9.494 49.4726 9.494C48.9926 9.494 48.5606 9.584 48.1766 9.764C47.8046 9.944 47.5106 10.208 47.2946 10.556C47.0786 10.892 46.9706 11.3 46.9706 11.78C46.9706 12.26 47.0786 12.668 47.2946 13.004C47.5106 13.34 47.8046 13.598 48.1766 13.778C48.5486 13.946 48.9806 14.03 49.4726 14.03ZM60.6523 15.614C59.7883 15.614 59.0143 15.464 58.3303 15.164C57.6463 14.864 57.1063 14.426 56.7103 13.85C56.3263 13.274 56.1343 12.584 56.1343 11.78C56.1343 10.976 56.3263 10.28 56.7103 9.692C57.0943 9.104 57.6223 8.648 58.2943 8.324C58.9783 8 59.7643 7.838 60.6523 7.838C60.9043 7.838 61.1443 7.856 61.3723 7.892C61.6123 7.928 61.8403 7.976 62.0563 8.036L66.2863 8.054V9.746C65.7103 9.746 65.1283 9.662 64.5403 9.494C63.9523 9.326 63.4363 9.14 62.9923 8.936L62.9383 8.828C63.3463 9.032 63.7123 9.284 64.0363 9.584C64.3723 9.872 64.6363 10.202 64.8283 10.574C65.0203 10.946 65.1163 11.372 65.1163 11.852C65.1163 12.632 64.9243 13.304 64.5403 13.868C64.1683 14.432 63.6463 14.864 62.9743 15.164C62.3023 15.464 61.5283 15.614 60.6523 15.614ZM63.5323 20.654V20.24C63.5323 19.664 63.3583 19.256 63.0103 19.016C62.6623 18.776 62.1763 18.656 61.5523 18.656H59.0863C58.5943 18.656 58.1743 18.614 57.8263 18.53C57.4903 18.458 57.2203 18.344 57.0163 18.188C56.8123 18.044 56.6623 17.87 56.5663 17.666C56.4703 17.462 56.4223 17.24 56.4223 17C56.4223 16.532 56.5723 16.178 56.8723 15.938C57.1723 15.686 57.5623 15.524 58.0423 15.452C58.5343 15.38 59.0563 15.368 59.6083 15.416L60.6523 15.614C59.9323 15.638 59.3863 15.704 59.0143 15.812C58.6543 15.908 58.4743 16.106 58.4743 16.406C58.4743 16.586 58.5463 16.73 58.6903 16.838C58.8343 16.946 59.0383 17 59.3023 17H61.8943C62.6383 17 63.2863 17.084 63.8383 17.252C64.3903 17.432 64.8163 17.726 65.1163 18.134C65.4163 18.554 65.5663 19.124 65.5663 19.844V20.654H63.5323ZM60.6523 14.03C61.1203 14.03 61.5403 13.946 61.9123 13.778C62.2963 13.598 62.5963 13.34 62.8123 13.004C63.0283 12.668 63.1363 12.26 63.1363 11.78C63.1363 11.3 63.0283 10.892 62.8123 10.556C62.5963 10.208 62.3023 9.944 61.9303 9.764C61.5583 9.584 61.1323 9.494 60.6523 9.494C60.1723 9.494 59.7403 9.584 59.3563 9.764C58.9843 9.944 58.6903 10.208 58.4743 10.556C58.2583 10.892 58.1503 11.3 58.1503 11.78C58.1503 12.26 58.2583 12.668 58.4743 13.004C58.6903 13.34 58.9843 13.598 59.3563 13.778C59.7283 13.946 60.1603 14.03 60.6523 14.03ZM75.342 14.048H77.304C77.208 14.66 76.962 15.206 76.566 15.686C76.182 16.154 75.666 16.526 75.018 16.802C74.37 17.066 73.59 17.198 72.678 17.198C71.634 17.198 70.71 17.012 69.906 16.64C69.102 16.256 68.466 15.716 67.998 15.02C67.542 14.324 67.314 13.496 67.314 12.536C67.314 11.588 67.536 10.76 67.98 10.052C68.436 9.344 69.06 8.798 69.852 8.414C70.644 8.03 71.562 7.838 72.606 7.838C73.674 7.838 74.568 8.03 75.288 8.414C76.02 8.786 76.56 9.35 76.908 10.106C77.256 10.85 77.4 11.792 77.34 12.932H69.366C69.426 13.436 69.594 13.886 69.87 14.282C70.146 14.678 70.518 14.99 70.986 15.218C71.454 15.446 72.006 15.56 72.642 15.56C73.338 15.56 73.92 15.422 74.388 15.146C74.868 14.858 75.186 14.492 75.342 14.048ZM72.552 9.476C71.724 9.476 71.046 9.674 70.518 10.07C69.99 10.466 69.648 10.976 69.492 11.6H75.306C75.246 10.928 74.97 10.406 74.478 10.034C73.986 9.662 73.344 9.476 72.552 9.476ZM83.1519 17.198C82.3119 17.198 81.5499 17 80.8659 16.604C80.1819 16.208 79.6419 15.662 79.2459 14.966C78.8499 14.258 78.6519 13.448 78.6519 12.536C78.6519 11.6 78.8439 10.784 79.2279 10.088C79.6239 9.38 80.1579 8.828 80.8299 8.432C81.5139 8.036 82.2879 7.838 83.1519 7.838C83.9079 7.838 84.5439 7.964 85.0599 8.216C85.5879 8.456 86.0019 8.792 86.3019 9.224C86.6139 9.644 86.8359 10.136 86.9679 10.7C87.1119 11.264 87.1839 11.876 87.1839 12.536C87.1839 13.04 87.1119 13.562 86.9679 14.102C86.8239 14.642 86.5959 15.146 86.2839 15.614C85.9719 16.082 85.5579 16.466 85.0419 16.766C84.5259 17.054 83.8959 17.198 83.1519 17.198ZM83.7819 15.542C84.4539 15.542 85.0299 15.41 85.5099 15.146C85.9899 14.882 86.3499 14.528 86.5899 14.084C86.8419 13.628 86.9679 13.112 86.9679 12.536C86.9679 11.9 86.8419 11.36 86.5899 10.916C86.3379 10.46 85.9719 10.112 85.4919 9.872C85.0239 9.62 84.4539 9.494 83.7819 9.494C82.8099 9.494 82.0599 9.776 81.5319 10.34C81.0039 10.904 80.7399 11.636 80.7399 12.536C80.7399 13.124 80.8659 13.646 81.1179 14.102C81.3819 14.546 81.7419 14.9 82.1979 15.164C82.6539 15.416 83.1819 15.542 83.7819 15.542ZM86.9679 4.436H89.0019V17H87.1119C87.0879 16.724 87.0579 16.382 87.0219 15.974C86.9859 15.566 86.9679 15.194 86.9679 14.858V4.436ZM95.1012 8.036H101.491V9.692H95.1012V8.036ZM97.2792 5.624H99.3132V17H97.2792V5.624ZM107.727 17.198C106.719 17.198 105.819 17.018 105.027 16.658C104.235 16.298 103.605 15.77 103.137 15.074C102.681 14.378 102.453 13.532 102.453 12.536C102.453 11.552 102.681 10.712 103.137 10.016C103.605 9.308 104.235 8.768 105.027 8.396C105.819 8.024 106.719 7.838 107.727 7.838C108.735 7.838 109.629 8.024 110.409 8.396C111.201 8.768 111.825 9.308 112.281 10.016C112.737 10.712 112.965 11.552 112.965 12.536C112.965 13.532 112.737 14.378 112.281 15.074C111.825 15.77 111.201 16.298 110.409 16.658C109.629 17.018 108.735 17.198 107.727 17.198ZM107.727 15.56C108.315 15.56 108.849 15.446 109.329 15.218C109.809 14.978 110.193 14.636 110.481 14.192C110.769 13.736 110.913 13.184 110.913 12.536C110.913 11.9 110.769 11.354 110.481 10.898C110.193 10.43 109.809 10.076 109.329 9.836C108.861 9.596 108.327 9.476 107.727 9.476C107.151 9.476 106.617 9.596 106.125 9.836C105.645 10.076 105.255 10.424 104.955 10.88C104.667 11.336 104.523 11.888 104.523 12.536C104.523 13.184 104.667 13.736 104.955 14.192C105.243 14.636 105.627 14.978 106.107 15.218C106.599 15.446 107.139 15.56 107.727 15.56Z" fill="white"/>
<path d="M134.6 32.6686C134.97 32.2994 134.97 31.7007 134.6 31.3314L128.583 25.3138C128.213 24.9445 127.615 24.9445 127.245 25.3138C126.876 25.683 126.876 26.2817 127.245 26.651L132.594 32L127.245 37.349C126.876 37.7183 126.876 38.317 127.245 38.6863C127.615 39.0555 128.213 39.0555 128.583 38.6863L134.6 32.6686ZM2.93164 32.9456L133.932 32.9456L133.932 31.0544L2.93164 31.0544L2.93164 32.9456Z" fill="url(#paint0_linear)"/>
<path d="M1.26302 32.6686C0.893738 32.2994 0.893738 31.7007 1.26302 31.3314L7.28064 25.3138C7.64991 24.9445 8.24862 24.9445 8.61789 25.3138C8.98716 25.683 8.98716 26.2817 8.61789 26.651L3.26889 32L8.61789 37.349C8.98716 37.7183 8.98716 38.317 8.61789 38.6863C8.24862 39.0555 7.64991 39.0555 7.28064 38.6863L1.26302 32.6686ZM132.932 32.9456L1.93164 32.9456L1.93164 31.0544L132.932 31.0544L132.932 32.9456Z" fill="url(#paint1_linear)"/>
<defs>
<linearGradient id="paint0_linear" x1="68.4316" y1="32" x2="0.311639" y2="32" gradientUnits="userSpaceOnUse">
<stop stop-color="#F7931A"/>
<stop offset="0.53125" stop-color="#FCCD12"/>
<stop offset="0.760417" stop-color="#3DB549"/>
</linearGradient>
<linearGradient id="paint1_linear" x1="67.4316" y1="32" x2="135.552" y2="32" gradientUnits="userSpaceOnUse">
<stop stop-color="#3DB549"/>
<stop offset="0.53125" stop-color="#FCCD12"/>
<stop offset="1" stop-color="#F7931A"/>
</linearGradient>
</defs>
</svg>
