<svg width="142" height="49" viewBox="0 0 142 49" fill="none" xmlns="http://www.w3.org/2000/svg">
<path d="M42.8504 23.9283L27.2042 2.51039C26.0386 0.913968 24.2368 0 22.2599 0C20.283 0 18.4812 0.915981 17.3156 2.51039L1.6694 23.9283C-0.557139 26.9762 -0.557138 31.0709 1.67343 34.1249L2.59142 35.367L2.59344 35.365L10.6702 46.4896C11.8358 48.086 13.6376 49 15.6145 49C17.225 49 18.7208 48.392 19.8501 47.3009L19.9266 47.3573L22.28 44.1362L23.9992 46.4876C24.0053 46.4977 24.0133 46.5057 24.0194 46.5138L24.4965 47.168L24.5428 47.1338C25.6883 48.3256 27.2505 48.998 28.9415 48.998C30.9164 48.998 32.7182 48.082 33.8878 46.4836L40.0098 38.0505L40.0158 38.0545L41.0305 36.6433L42.1921 35.0449L42.184 35.0388L42.8483 34.1128C45.0789 31.0709 45.0789 26.9762 42.8504 23.9283ZM19.8139 4.33431C20.3917 3.54515 21.2835 3.09219 22.2599 3.09219C23.2383 3.09219 24.1301 3.54515 24.7059 4.33431L26.9908 7.46072L22.28 13.9088L17.5491 7.43254L19.8139 4.33431ZM18.0645 44.6697L18.0625 44.6677C17.4847 45.4569 16.5929 45.9098 15.6165 45.9098C14.6381 45.9098 13.7463 45.4569 13.1725 44.6717L4.86628 33.233L4.86226 33.2371L4.16772 32.2969C2.73839 30.3401 2.73839 27.711 4.16772 25.7542L15.6366 10.0557L20.3675 16.532L14.9622 23.9303C12.7357 26.9782 12.7357 31.0729 14.9622 34.1208L20.3675 41.5191L18.0645 44.6697ZM22.28 19.1511L27.1035 25.7522C28.5328 27.709 28.5328 30.3381 27.1035 32.2949L22.28 38.896L17.4565 32.2949C16.0272 30.3381 16.0272 27.709 17.4565 25.7522L22.28 19.1511ZM31.3895 44.6677C30.8117 45.4569 29.9199 45.9098 28.9435 45.9098C27.9772 45.9098 27.0955 45.4669 26.5177 44.6939L24.1965 41.5171L29.6018 34.1188C31.8284 31.0709 31.8284 26.9762 29.6018 23.9283L24.1965 16.5299L28.9073 10.0818L40.3561 25.7522C41.7854 27.709 41.7854 30.3381 40.35 32.305L38.5342 34.8295L31.3895 44.6677Z" fill="url(#paint0_linear)"/>
<path opacity="0.6" d="M20.3279 41.5049L22.2806 44.1723L19.3112 48.1584L17.3564 45.5674L20.3279 41.5049Z" fill="url(#paint1_linear)"/>
<path d="M20.3561 16.5312L22.2565 19.1725L17.8215 25.3025L15.3896 23.382L20.3561 16.5312Z" fill="url(#paint2_linear)"/>
<path d="M38.3076 17.7113L31.3622 8.15283L31.3763 8.13874L28.8096 4.63184C29.6329 5.78537 30.0255 6.71142 29.953 7.5972C29.8866 8.40649 29.6229 9.03258 29.3793 9.45332L28.9223 10.0814L29.2082 10.4901L29.2142 10.482L35.8777 19.6318L38.3076 17.7113Z" fill="url(#paint3_linear)"/>
<path d="M6.24707 17.7113L13.1924 8.15283L13.1783 8.13874L15.7451 4.63184C14.9217 5.78537 14.5292 6.71142 14.6016 7.5972C14.6681 8.40649 14.9318 9.03258 15.1754 9.45332L15.6324 10.0814L15.3465 10.4901L15.3405 10.482L8.67694 19.6318L6.24707 17.7113Z" fill="url(#paint4_linear)"/>
<path d="M18.5939 6.00696C18.5939 6.00696 17.3881 7.33966 18.5859 8.85556L17.7122 8.81932L16.6553 6.96119L17.8873 6.00293L18.5939 6.00696Z" fill="url(#paint5_linear)"/>
<path d="M25.9463 6.02594C25.9463 6.02594 27.1683 7.35863 25.9684 8.87653L26.8421 8.8403L27.899 6.98218L26.667 6.02393L25.9463 6.02594Z" fill="url(#paint6_linear)"/>
<path d="M42.8504 23.9283L27.2042 2.51039C26.0386 0.913968 24.2368 0 22.2599 0C20.283 0 18.4812 0.915981 17.3156 2.51039L1.6694 23.9283C-0.557139 26.9762 -0.557138 31.0709 1.67343 34.1249L2.59142 35.367L2.59344 35.365L10.6702 46.4896C11.8358 48.086 13.6376 49 15.6145 49C17.225 49 18.7208 48.392 19.8501 47.3009L19.9266 47.3573L22.28 44.1362L23.9992 46.4876C24.0053 46.4977 24.0133 46.5057 24.0194 46.5138L24.4965 47.168L24.5428 47.1338C25.6883 48.3256 27.2505 48.998 28.9415 48.998C30.9164 48.998 32.7182 48.082 33.8878 46.4836L40.0098 38.0505L40.0158 38.0545L41.0305 36.6433L42.1921 35.0449L42.184 35.0388L42.8483 34.1128C45.0789 31.0709 45.0789 26.9762 42.8504 23.9283ZM19.8139 4.33431C20.3917 3.54515 21.2835 3.09219 22.2599 3.09219C23.2383 3.09219 24.1301 3.54515 24.7059 4.33431L26.9908 7.46072L22.28 13.9088L17.5491 7.43254L19.8139 4.33431ZM18.0645 44.6697L18.0625 44.6677C17.4847 45.4569 16.5929 45.9098 15.6165 45.9098C14.6381 45.9098 13.7463 45.4569 13.1725 44.6717L4.86628 33.233L4.86226 33.2371L4.16772 32.2969C2.73839 30.3401 2.73839 27.711 4.16772 25.7542L15.6366 10.0557L20.3675 16.532L14.9622 23.9303C12.7357 26.9782 12.7357 31.0729 14.9622 34.1208L20.3675 41.5191L18.0645 44.6697ZM22.28 19.1511L27.1035 25.7522C28.5328 27.709 28.5328 30.3381 27.1035 32.2949L22.28 38.896L17.4565 32.2949C16.0272 30.3381 16.0272 27.709 17.4565 25.7522L22.28 19.1511ZM31.3895 44.6677C30.8117 45.4569 29.9199 45.9098 28.9435 45.9098C27.9772 45.9098 27.0955 45.4669 26.5177 44.6939L24.1965 41.5171L29.6018 34.1188C31.8284 31.0709 31.8284 26.9762 29.6018 23.9283L24.1965 16.5299L28.9073 10.0818L40.3561 25.7522C41.7854 27.709 41.7854 30.3381 40.35 32.305L38.5342 34.8295L31.3895 44.6677Z" fill="url(#paint7_linear)"/>
<path opacity="0.6" d="M20.3279 41.5049L22.2806 44.1723L19.3112 48.1584L17.3564 45.5674L20.3279 41.5049Z" fill="url(#paint8_linear)"/>
<path d="M20.3561 16.5312L22.2565 19.1725L17.8215 25.3025L15.3896 23.382L20.3561 16.5312Z" fill="url(#paint9_linear)"/>
<path d="M38.3076 17.7113L31.3622 8.15283L31.3763 8.13874L28.8096 4.63184C29.6329 5.78537 30.0255 6.71142 29.953 7.5972C29.8866 8.40649 29.6229 9.03258 29.3793 9.45332L28.9223 10.0814L29.2082 10.4901L29.2142 10.482L35.8777 19.6318L38.3076 17.7113Z" fill="url(#paint10_linear)"/>
<path d="M6.24707 17.7113L13.1924 8.15283L13.1783 8.13874L15.7451 4.63184C14.9217 5.78537 14.5292 6.71142 14.6016 7.5972C14.6681 8.40649 14.9318 9.03258 15.1754 9.45332L15.6324 10.0814L15.3465 10.4901L15.3405 10.482L8.67694 19.6318L6.24707 17.7113Z" fill="url(#paint11_linear)"/>
<path d="M18.5939 6.00696C18.5939 6.00696 17.3881 7.33966 18.5859 8.85556L17.7122 8.81932L16.6553 6.96119L17.8873 6.00293L18.5939 6.00696Z" fill="url(#paint12_linear)"/>
<path d="M25.9463 6.02594C25.9463 6.02594 27.1683 7.35863 25.9684 8.87653L26.8421 8.8403L27.899 6.98218L26.667 6.02393L25.9463 6.02594Z" fill="url(#paint13_linear)"/>
<path d="M98.7451 28.1483V31.7097H95.6746V28.365C95.6746 26.6621 94.9671 26.1848 92.0658 26.1848H86.2735V31.7097H83.1996V16.7668H93.3387C96.7884 16.7668 99.0701 18.148 99.0701 21.293C99.0701 23.7981 97.4282 24.8408 95.2785 25.203C97.6212 25.3859 98.7451 26.0291 98.7451 28.1483ZM93.3387 23.7914C95.072 23.7914 95.9962 22.9078 95.9962 21.4758C95.9962 20.1115 95.0686 19.404 93.3387 19.404H86.2769V23.7914H93.3387ZM119.497 19.3295H113.153V31.7097H110.079V19.3295H103.735V16.7668H119.501V19.3295H119.497ZM141.627 16.7668V31.7097H138.553V25.501H127.581V31.7131H124.507V16.7668H127.581V22.9349H138.553V16.7668H141.627ZM71.5846 17.7215C71.2528 16.909 70.4437 16.3335 69.4958 16.3335C68.5513 16.3335 67.7422 16.9056 67.4105 17.7147L60.8564 31.6792H64.1538L65.623 28.4428H73.3822L74.8548 31.6792H78.1826L71.5846 17.7215ZM66.7774 25.8971L69.4924 19.9118L72.2176 25.8971H66.7774Z" fill="white"/>
<defs>
<linearGradient id="paint0_linear" x1="7.08767" y1="43.0145" x2="37.4511" y2="12.651" gradientUnits="userSpaceOnUse">
<stop stop-color="#FF8506"/>
<stop offset="0.5805" stop-color="#FD3947"/>
<stop offset="1" stop-color="#FB0078"/>
</linearGradient>
<linearGradient id="paint1_linear" x1="18.4402" y1="46.8533" x2="22.4263" y2="41.1202" gradientUnits="userSpaceOnUse">
<stop stop-color="#FF7E0D" stop-opacity="0"/>
<stop offset="0.0133" stop-color="#F97910" stop-opacity="0.0192"/>
<stop offset="0.1144" stop-color="#D25427" stop-opacity="0.1659"/>
<stop offset="0.219" stop-color="#B1363A" stop-opacity="0.3175"/>
<stop offset="0.3263" stop-color="#981E48" stop-opacity="0.4731"/>
<stop offset="0.4375" stop-color="#860D53" stop-opacity="0.6344"/>
<stop offset="0.5551" stop-color="#7B0359" stop-opacity="0.8048"/>
<stop offset="0.6897" stop-color="#78005B"/>
</linearGradient>
<linearGradient id="paint2_linear" x1="16.0073" y1="23.9981" x2="21.9153" y2="18.09" gradientUnits="userSpaceOnUse">
<stop stop-color="#FF4630" stop-opacity="0"/>
<stop offset="0.5722" stop-color="#B31F48" stop-opacity="0.5722"/>
<stop offset="1" stop-color="#78005B"/>
</linearGradient>
<linearGradient id="paint3_linear" x1="36.4708" y1="17.9277" x2="29.2137" y2="7.6952" gradientUnits="userSpaceOnUse">
<stop stop-color="#FB126A" stop-opacity="0"/>
<stop offset="0.1389" stop-color="#F41169" stop-opacity="0.1389"/>
<stop offset="0.3365" stop-color="#E20F67" stop-opacity="0.3365"/>
<stop offset="0.5694" stop-color="#C30A64" stop-opacity="0.5694"/>
<stop offset="0.827" stop-color="#99045F" stop-opacity="0.827"/>
<stop offset="1" stop-color="#78005B"/>
</linearGradient>
<linearGradient id="paint4_linear" x1="8.08469" y1="17.9277" x2="15.3418" y2="7.6952" gradientUnits="userSpaceOnUse">
<stop stop-color="#FB126A" stop-opacity="0"/>
<stop offset="0.1389" stop-color="#F41169" stop-opacity="0.1389"/>
<stop offset="0.3365" stop-color="#E20F67" stop-opacity="0.3365"/>
<stop offset="0.5694" stop-color="#C30A64" stop-opacity="0.5694"/>
<stop offset="0.827" stop-color="#99045F" stop-opacity="0.827"/>
<stop offset="1" stop-color="#78005B"/>
</linearGradient>
<linearGradient id="paint5_linear" x1="17.2108" y1="8.31881" x2="19.058" y2="6.47159" gradientUnits="userSpaceOnUse">
<stop stop-color="#FC1F5C"/>
<stop offset="1" stop-color="#FB0078"/>
</linearGradient>
<linearGradient id="paint6_linear" x1="27.344" y1="8.33887" x2="25.489" y2="6.48367" gradientUnits="userSpaceOnUse">
<stop stop-color="#FC1F5C"/>
<stop offset="1" stop-color="#FB0078"/>
</linearGradient>
<linearGradient id="paint7_linear" x1="7.08767" y1="43.0145" x2="37.4511" y2="12.651" gradientUnits="userSpaceOnUse">
<stop stop-color="#FF8506"/>
<stop offset="0.5805" stop-color="#FD3947"/>
<stop offset="1" stop-color="#FB0078"/>
</linearGradient>
<linearGradient id="paint8_linear" x1="18.4402" y1="46.8533" x2="22.4263" y2="41.1202" gradientUnits="userSpaceOnUse">
<stop stop-color="#FF7E0D" stop-opacity="0"/>
<stop offset="0.0133" stop-color="#F97910" stop-opacity="0.0192"/>
<stop offset="0.1144" stop-color="#D25427" stop-opacity="0.1659"/>
<stop offset="0.219" stop-color="#B1363A" stop-opacity="0.3175"/>
<stop offset="0.3263" stop-color="#981E48" stop-opacity="0.4731"/>
<stop offset="0.4375" stop-color="#860D53" stop-opacity="0.6344"/>
<stop offset="0.5551" stop-color="#7B0359" stop-opacity="0.8048"/>
<stop offset="0.6897" stop-color="#78005B"/>
</linearGradient>
<linearGradient id="paint9_linear" x1="16.0073" y1="23.9981" x2="21.9153" y2="18.09" gradientUnits="userSpaceOnUse">
<stop stop-color="#FF4630" stop-opacity="0"/>
<stop offset="0.5722" stop-color="#B31F48" stop-opacity="0.5722"/>
<stop offset="1" stop-color="#78005B"/>
</linearGradient>
<linearGradient id="paint10_linear" x1="36.4708" y1="17.9277" x2="29.2137" y2="7.6952" gradientUnits="userSpaceOnUse">
<stop stop-color="#FB126A" stop-opacity="0"/>
<stop offset="0.1389" stop-color="#F41169" stop-opacity="0.1389"/>
<stop offset="0.3365" stop-color="#E20F67" stop-opacity="0.3365"/>
<stop offset="0.5694" stop-color="#C30A64" stop-opacity="0.5694"/>
<stop offset="0.827" stop-color="#99045F" stop-opacity="0.827"/>
<stop offset="1" stop-color="#78005B"/>
</linearGradient>
<linearGradient id="paint11_linear" x1="8.08469" y1="17.9277" x2="15.3418" y2="7.6952" gradientUnits="userSpaceOnUse">
<stop stop-color="#FB126A" stop-opacity="0"/>
<stop offset="0.1389" stop-color="#F41169" stop-opacity="0.1389"/>
<stop offset="0.3365" stop-color="#E20F67" stop-opacity="0.3365"/>
<stop offset="0.5694" stop-color="#C30A64" stop-opacity="0.5694"/>
<stop offset="0.827" stop-color="#99045F" stop-opacity="0.827"/>
<stop offset="1" stop-color="#78005B"/>
</linearGradient>
<linearGradient id="paint12_linear" x1="17.2108" y1="8.31881" x2="19.058" y2="6.47159" gradientUnits="userSpaceOnUse">
<stop stop-color="#FC1F5C"/>
<stop offset="1" stop-color="#FB0078"/>
</linearGradient>
<linearGradient id="paint13_linear" x1="27.344" y1="8.33887" x2="25.489" y2="6.48367" gradientUnits="userSpaceOnUse">
<stop stop-color="#FC1F5C"/>
<stop offset="1" stop-color="#FB0078"/>
</linearGradient>
</defs>
</svg>
