<svg width="228" height="50" viewBox="0 0 228 50" fill="none" xmlns="http://www.w3.org/2000/svg">
<path d="M59.0776 20.6985L45.8699 2.61865C44.8855 1.27042 43.3661 0.5 41.6969 0.5C40.0276 0.5 38.5082 1.27399 37.5238 2.61865L36.0864 4.58393L34.649 2.61865C33.6645 1.27042 32.1451 0.5 30.4759 0.5C28.8066 0.5 27.2872 1.27399 26.3028 2.61865L24.8832 4.56253L23.4636 2.61865C22.4792 1.27042 20.9598 0.5 19.2905 0.5C17.6213 0.5 16.1019 1.27399 15.1174 2.61865L1.90976 20.6985C0.0300807 23.2701 0.0300807 26.7299 1.90976 29.3015L15.1174 47.3814C16.1019 48.7296 17.6213 49.5 19.2905 49.5C20.9598 49.5 22.4792 48.726 23.4636 47.3814L30.4937 37.7583L31.9454 39.7449C31.9489 39.7521 31.9561 39.7592 31.9596 39.7663L37.5238 47.3814C38.5082 48.7296 40.0276 49.5 41.6969 49.5C43.3661 49.5 44.8855 48.726 45.8699 47.3814L59.0776 29.3015C60.9573 26.7299 60.9573 23.2701 59.0776 20.6985ZM28.4143 4.15949C28.9029 3.49251 29.6555 3.11086 30.4794 3.11086C31.3033 3.11086 32.0595 3.49251 32.5446 4.15949L34.4742 6.79888L30.4973 12.2417L26.5025 6.77391L28.4143 4.15949ZM21.3592 45.8405C20.8706 46.5075 20.118 46.8891 19.2941 46.8891C18.4702 46.8891 17.714 46.5075 17.229 45.8405L4.02128 27.7607C2.81572 26.1093 2.81572 23.8907 4.02128 22.2358L17.229 4.15592C17.7176 3.48894 18.4702 3.10729 19.2941 3.10729C20.118 3.10729 20.8742 3.48894 21.3592 4.15592L23.271 6.77035L13.0987 20.6949C11.219 23.2666 11.219 26.7263 13.1022 29.3015L13.8762 30.3501L20.6958 39.7414C21.5626 40.9291 22.8502 41.671 24.2875 41.8279L21.3592 45.8405ZM26.9376 38.2077C26.449 38.8711 25.6964 39.2563 24.8689 39.2563C24.045 39.2563 23.2889 38.8747 22.8073 38.2112L15.7951 28.556L15.7916 28.5596L15.2066 27.7642C14.001 26.1128 14.001 23.8943 15.2066 22.2393L24.8868 8.98886L28.8815 14.4567L24.3197 20.7021C22.44 23.2737 22.44 26.7334 24.3197 29.3051L28.8815 35.5504L26.9376 38.2077ZM30.4973 16.6645L34.5669 22.2358C35.7725 23.8872 35.7725 26.1057 34.5669 27.7607L30.4973 33.3319L26.4276 27.7607C25.222 26.1093 25.222 23.8907 26.4276 22.2358L30.4973 16.6645ZM36.6749 29.3015C38.5545 26.7299 38.5545 23.2701 36.6749 20.6985L32.113 14.4531L36.0899 9.01027L45.7522 22.2393C46.9578 23.8907 46.9578 26.1093 45.7451 27.7714L44.1971 29.9221L38.18 38.2077C37.6914 38.8747 36.9388 39.2563 36.1149 39.2563C35.2981 39.2563 34.5527 38.8818 34.0676 38.2291L32.1094 35.5504L36.6749 29.3015ZM56.9732 27.7607L43.7656 45.8405C43.2769 46.5075 42.5243 46.8891 41.7004 46.8891C40.8765 46.8891 40.1203 46.5075 39.6353 45.8405L36.707 41.8315C38.1408 41.6746 39.4284 40.9327 40.2987 39.7414L45.4669 32.6221L45.474 32.6257L46.3229 31.4487L47.3109 30.0862L47.3038 30.0826L47.8638 29.3015C49.7434 26.7299 49.7434 23.2701 47.8638 20.6985L37.7092 6.79888L39.6388 4.15949C40.1275 3.49251 40.8801 3.11086 41.704 3.11086C42.5279 3.11086 43.2805 3.49251 43.7691 4.15949L56.9768 22.2393C58.1788 23.8907 58.1788 26.1093 56.9732 27.7607Z" fill="url(#paint0_linear)"/>
<path opacity="0.4" d="M24.8681 41.8643C24.6683 41.8643 24.4686 41.8536 24.276 41.8322L21.4404 45.7414L23.5805 47.2501L28.7665 40.1309C27.7821 41.2366 26.3697 41.8643 24.8681 41.8643Z" fill="url(#paint1_linear)"/>
<path opacity="0.4" d="M36.1063 41.863C36.306 41.863 36.5057 41.8523 36.6983 41.8309L39.5339 45.7401L37.3939 47.2488L32.2363 40.1367C33.2172 41.2424 34.6047 41.863 36.1063 41.863Z" fill="url(#paint2_linear)"/>
<path opacity="0.4" d="M28.8605 35.5298L30.5083 37.7804L28.0009 41.1474L26.353 38.961L28.8605 35.5298Z" fill="url(#paint3_linear)"/>
<path opacity="0.6" d="M23.2712 6.77441L24.8905 9.00363L19.0196 17.0681L16.9688 15.4452L23.2712 6.77441Z" fill="url(#paint4_linear)"/>
<path opacity="0.6" d="M28.8823 14.4502L30.4874 16.6794L26.7459 21.8548L24.6914 20.2319L28.8823 14.4502Z" fill="url(#paint5_linear)"/>
<path opacity="0.6" d="M34.4745 6.79492L36.0867 9.01344L32.1169 14.4456L30.4976 12.2307L34.4745 6.79492Z" fill="url(#paint6_linear)"/>
<path d="M98.1363 17.3257V31.9192H95.1337V22.6236L89.1562 31.9192H85.7999L79.8224 22.6583V31.9192H76.8198V17.3257H79.8224L87.4677 29.3153L95.1371 17.3257H98.1363Z" fill="white"/>
<path d="M141.546 17.3257V31.9192H138.543V25.855H127.826V31.9192H124.823V17.3257H127.826V23.3517H138.543V17.3257H141.546Z" fill="white"/>
<path d="M185.127 24.5756C185.127 28.4416 182.849 31.9192 176.573 31.9192H168.224V17.3257H176.573C183.144 17.3257 185.127 20.7097 185.127 24.5756ZM182.069 24.5756C182.069 22.1035 180.817 19.8984 176.504 19.8984H171.227V29.3465H176.5C180.817 29.3465 182.069 27.0478 182.069 24.5756Z" fill="white"/>
<path d="M209.244 24.62C209.244 19.8769 212.638 17.0269 218.473 17.0269C224.309 17.0269 227.703 19.8769 227.703 24.62C227.703 29.3632 224.309 32.2132 218.473 32.2132C212.638 32.2132 209.244 29.3667 209.244 24.62ZM224.558 24.62C224.558 21.243 222.058 19.6203 218.473 19.6203C214.892 19.6203 212.319 21.243 212.319 24.62C212.319 28.0006 214.892 29.6094 218.473 29.6094C222.055 29.6094 224.558 28.004 224.558 24.62Z" fill="white"/>
<path d="M113.51 18.1991C113.184 17.3982 112.386 16.833 111.457 16.833C110.528 16.833 109.734 17.3947 109.404 18.1921L102.962 31.9188H106.204L107.647 28.7394H115.274L116.724 31.9188H119.997L113.51 18.1991ZM108.784 26.2326L111.454 20.3488L114.134 26.2326H108.784Z" fill="white"/>
<path d="M156.8 18.1991C156.474 17.3982 155.676 16.833 154.747 16.833C153.818 16.833 153.024 17.3947 152.695 18.1921L146.252 31.9188H149.494L150.937 28.7394H158.565L160.014 31.9188H163.287L156.8 18.1991ZM152.074 26.2326L154.744 20.3488L157.424 26.2326H152.074Z" fill="white"/>
<path d="M199.577 18.1991C199.251 17.3982 198.453 16.833 197.524 16.833C196.595 16.833 195.801 17.3947 195.471 18.1921L189.029 31.9188H192.271L193.713 28.7394H201.341L202.791 31.9188H206.064L199.577 18.1991ZM194.851 26.2326L197.521 20.3488L200.201 26.2326H194.851Z" fill="white"/>
<defs>
<linearGradient id="paint0_linear" x1="11.5728" y1="43.923" x2="49.419" y2="6.07693" gradientUnits="userSpaceOnUse">
<stop stop-color="#FF8506"/>
<stop offset="0.5805" stop-color="#FD3947"/>
<stop offset="1" stop-color="#FB0078"/>
</linearGradient>
<linearGradient id="paint1_linear" x1="27.1207" y1="40.0768" x2="22.6996" y2="46.3334" gradientUnits="userSpaceOnUse">
<stop stop-color="#78005B"/>
<stop offset="0.3483" stop-color="#7A025A" stop-opacity="0.6517"/>
<stop offset="0.51" stop-color="#820955" stop-opacity="0.49"/>
<stop offset="0.6332" stop-color="#8E154E" stop-opacity="0.3668"/>
<stop offset="0.7369" stop-color="#A12643" stop-opacity="0.2631"/>
<stop offset="0.8283" stop-color="#B83C36" stop-opacity="0.1717"/>
<stop offset="0.9111" stop-color="#D65725" stop-opacity="0.0889"/>
<stop offset="0.9857" stop-color="#F87711" stop-opacity="0.0143"/>
<stop offset="1" stop-color="#FF7E0D" stop-opacity="0"/>
</linearGradient>
<linearGradient id="paint2_linear" x1="37.9221" y1="45.8664" x2="33.7612" y2="39.8814" gradientUnits="userSpaceOnUse">
<stop stop-color="#FF7E0D" stop-opacity="0"/>
<stop offset="0.00928743" stop-color="#F97811" stop-opacity="0.0127"/>
<stop offset="0.0651" stop-color="#D65825" stop-opacity="0.0888"/>
<stop offset="0.1269" stop-color="#B93D36" stop-opacity="0.1729"/>
<stop offset="0.1949" stop-color="#A12643" stop-opacity="0.2657"/>
<stop offset="0.272" stop-color="#8F154E" stop-opacity="0.3707"/>
<stop offset="0.3632" stop-color="#820955" stop-opacity="0.495"/>
<stop offset="0.4822" stop-color="#7A025A" stop-opacity="0.6573"/>
<stop offset="0.7336" stop-color="#78005B"/>
</linearGradient>
<linearGradient id="paint3_linear" x1="27.2663" y1="40.0448" x2="30.6311" y2="35.2053" gradientUnits="userSpaceOnUse">
<stop stop-color="#FF7E0D" stop-opacity="0"/>
<stop offset="0.0133" stop-color="#F97910" stop-opacity="0.0192"/>
<stop offset="0.1144" stop-color="#D25427" stop-opacity="0.1659"/>
<stop offset="0.219" stop-color="#B1363A" stop-opacity="0.3175"/>
<stop offset="0.3263" stop-color="#981E48" stop-opacity="0.4731"/>
<stop offset="0.4375" stop-color="#860D53" stop-opacity="0.6344"/>
<stop offset="0.5551" stop-color="#7B0359" stop-opacity="0.8048"/>
<stop offset="0.6897" stop-color="#78005B"/>
</linearGradient>
<linearGradient id="paint4_linear" x1="17.2936" y1="15.7715" x2="24.7809" y2="8.28426" gradientUnits="userSpaceOnUse">
<stop stop-color="#FF4630" stop-opacity="0"/>
<stop offset="0.5722" stop-color="#B31F48" stop-opacity="0.5722"/>
<stop offset="1" stop-color="#78005B"/>
</linearGradient>
<linearGradient id="paint5_linear" x1="25.213" y1="20.7523" x2="30.2002" y2="15.765" gradientUnits="userSpaceOnUse">
<stop stop-color="#FF4630" stop-opacity="0"/>
<stop offset="0.5722" stop-color="#B31F48" stop-opacity="0.5722"/>
<stop offset="1" stop-color="#78005B"/>
</linearGradient>
<linearGradient id="paint6_linear" x1="30.7936" y1="13.1223" x2="35.7973" y2="8.11865" gradientUnits="userSpaceOnUse">
<stop stop-color="#FF4630" stop-opacity="0"/>
<stop offset="0.5722" stop-color="#B31F48" stop-opacity="0.5722"/>
<stop offset="1" stop-color="#78005B"/>
</linearGradient>
</defs>
</svg>
