<svg width="160" height="50" viewBox="0 0 160 50" fill="none" xmlns="http://www.w3.org/2000/svg">
<path d="M96.0844 28.6491V32.2107H93.0138V28.8657C93.0138 27.1628 92.3062 26.6854 89.4048 26.6854H83.6121V32.2107H80.538V17.2668H90.6777C94.1276 17.2668 96.4095 18.6481 96.4095 21.7933C96.4095 24.2986 94.7675 25.3414 92.6176 25.7036C94.9604 25.8864 96.0844 26.5297 96.0844 28.6491ZM90.6777 24.2919C92.4111 24.2919 93.3354 23.4082 93.3354 21.9761C93.3354 20.6118 92.4077 19.9042 90.6777 19.9042H83.6155V24.2919H90.6777ZM110.493 19.8297V32.2107H107.419V19.8297H101.075V17.2668H116.841V19.8297H110.493ZM138.969 17.2668V32.2107H135.895V26.0016H124.923V32.2141H121.848V17.2668H124.923V23.4353H135.895V17.2668H138.969ZM68.9222 18.2216C68.5904 17.409 67.7812 16.8335 66.8333 16.8335C65.8887 16.8335 65.0796 17.4056 64.7478 18.2148L58.1934 32.1802H61.4909L62.9602 28.9436H70.7199L72.1926 32.1802H75.5206L68.9222 18.2216ZM64.1147 26.3977L66.8299 20.412L69.5553 26.3977H64.1147Z" fill="white"/>
<path d="M144.465 31.4817V16.8417H152.905C154.866 16.8417 156.352 17.1736 157.362 17.8373C158.388 18.486 158.901 19.459 158.901 20.7563C158.901 21.5859 158.697 22.2421 158.29 22.7248C157.883 23.1925 157.302 23.5394 156.548 23.7657C155.809 23.992 154.934 24.1353 153.923 24.1956L154.014 24.0372C154.753 24.0523 155.447 24.1051 156.095 24.1956C156.759 24.2861 157.34 24.4521 157.838 24.6934C158.335 24.9348 158.728 25.2742 159.014 25.7117C159.301 26.134 159.444 26.6922 159.444 27.3861C159.444 28.2912 159.203 29.0454 158.72 29.6488C158.237 30.2372 157.566 30.6822 156.706 30.9839C155.846 31.2856 154.851 31.4515 153.719 31.4817H144.465ZM147.474 28.9926H153.403C154.353 28.9926 155.085 28.8418 155.598 28.5401C156.11 28.2233 156.367 27.7255 156.367 27.0467C156.367 26.5489 156.216 26.1868 155.914 25.9606C155.613 25.7343 155.213 25.5985 154.715 25.5533C154.217 25.4929 153.682 25.4628 153.109 25.4628H147.474V28.9926ZM147.474 23.0416H152.792C153.742 23.0416 154.474 22.9059 154.987 22.6343C155.499 22.3477 155.756 21.865 155.756 21.1862C155.756 20.5074 155.499 20.0322 154.987 19.7607C154.474 19.474 153.795 19.3307 152.95 19.3307H147.474V23.0416Z" fill="white"/>
<mask id="mask0" mask-type="alpha" maskUnits="userSpaceOnUse" x="4" y="0" width="38" height="50">
<path d="M4.19531 0.5H41.5268V49.5H4.19531V30.9122H14.3531V18.2161H4.19531V0.5Z" fill="#171717"/>
</mask>
<g mask="url(#mask0)">
<path d="M16.9558 28.7458L16.9558 28.7458C15.5668 29.2624 14.5792 29.6292 13.7999 29.8791C13.0209 30.129 12.5564 30.226 12.2103 30.2492C9.45613 30.434 6.9414 28.6862 6.15466 26.0403C6.05579 25.7078 5.98474 25.2386 5.94745 24.4214C5.91015 23.6038 5.90973 22.5504 5.90973 21.0684V10.6458C5.90973 8.37299 5.92208 7.54411 6.07788 6.90526C6.61248 4.71323 8.34942 3.01742 10.5536 2.5355C11.196 2.39504 12.025 2.40256 14.2971 2.45701L27.3377 2.76955C33.7204 2.92252 38.815 8.14063 38.815 14.5252C38.815 18.1876 36.5378 21.4639 33.105 22.7405L17.0183 28.7226L17.0183 28.7226L16.9558 28.7458Z" stroke="white" stroke-width="3.42883"/>
<path d="M16.9558 28.7458L16.9558 28.7458C15.5668 29.2624 14.5792 29.6292 13.7999 29.8791C13.0209 30.129 12.5564 30.226 12.2103 30.2492C9.45613 30.434 6.9414 28.6862 6.15466 26.0403C6.05579 25.7078 5.98474 25.2386 5.94745 24.4214C5.91015 23.6038 5.90973 22.5504 5.90973 21.0684V10.6458C5.90973 8.37299 5.92208 7.54411 6.07788 6.90526C6.61248 4.71323 8.34942 3.01742 10.5536 2.5355C11.196 2.39504 12.025 2.40256 14.2971 2.45701L27.3377 2.76955C33.7204 2.92252 38.815 8.14063 38.815 14.5252C38.815 18.1876 36.5378 21.4639 33.105 22.7405L17.0183 28.7226L17.0183 28.7226L16.9558 28.7458Z" stroke="url(#paint0_linear)" stroke-width="3.42883"/>
<path opacity="0.8" d="M26.8818 23.2518L32.5169 21.1563C34.6153 20.376 36.1787 18.6696 36.8134 16.6032L36.8518 16.5811L38.9038 20.1353C37.7044 22.0282 35.9024 23.5316 33.7042 24.349L28.6092 26.2437L26.8818 23.2518Z" fill="url(#paint1_linear)"/>
<path opacity="0.8" d="M16.5918 27.077L27.9702 22.8457L29.6976 25.8376L18.3192 30.0688L16.5918 27.077Z" fill="url(#paint2_linear)"/>
<path d="M12.2132 19.1966L12.328 17.486L12.2132 19.1966C9.45906 19.0118 6.94433 20.7596 6.15759 23.4055C6.05872 23.738 5.98767 24.2072 5.95038 25.0244C5.91308 25.842 5.91266 26.8955 5.91266 28.3774V38.8C5.91266 41.0728 5.92501 41.9017 6.08081 42.5405C6.61541 44.7326 8.35235 46.4284 10.5566 46.9103C11.199 47.0508 12.0279 47.0432 14.3 46.9888L27.3406 46.6763C33.7233 46.5233 38.8179 41.3052 38.8179 34.9206C38.8179 31.2582 36.5407 27.9819 33.108 26.7053L16.9587 20.7C15.5697 20.1834 14.5821 19.8167 13.8029 19.5667C13.0239 19.3168 12.5593 19.2198 12.2132 19.1966Z" stroke="white" stroke-width="3.42883"/>
<path d="M12.2132 19.1966L12.328 17.486L12.2132 19.1966C9.45906 19.0118 6.94433 20.7596 6.15759 23.4055C6.05872 23.738 5.98767 24.2072 5.95038 25.0244C5.91308 25.842 5.91266 26.8955 5.91266 28.3774V38.8C5.91266 41.0728 5.92501 41.9017 6.08081 42.5405C6.61541 44.7326 8.35235 46.4284 10.5566 46.9103C11.199 47.0508 12.0279 47.0432 14.3 46.9888L27.3406 46.6763C33.7233 46.5233 38.8179 41.3052 38.8179 34.9206C38.8179 31.2582 36.5407 27.9819 33.108 26.7053L16.9587 20.7C15.5697 20.1834 14.5821 19.8167 13.8029 19.5667C13.0239 19.3168 12.5593 19.2198 12.2132 19.1966Z" stroke="url(#paint3_linear)" stroke-width="3.42883"/>
</g>
<mask id="mask1" mask-type="alpha" maskUnits="userSpaceOnUse" x="4" y="25" width="4" height="20">
<path opacity="0.7" d="M7.59474 44.1434L4.19434 44.6304V25.1592L7.59474 32.7147V44.1434Z" fill="url(#paint4_linear)"/>
</mask>
<g mask="url(#mask1)">
<rect x="4.19434" y="29.7183" width="3.40632" height="12.4377" fill="url(#paint5_linear)"/>
</g>
<mask id="mask2" mask-type="alpha" maskUnits="userSpaceOnUse" x="4" y="5" width="4" height="20">
<path opacity="0.7" d="M7.60065 5.73939L4.19434 5.25244V24.7237L7.60065 17.1681V5.73939Z" fill="url(#paint6_linear)"/>
</mask>
<g mask="url(#mask2)">
<rect width="3.40632" height="12.4377" transform="matrix(1 0 0 -1 4.19434 20.1646)" fill="url(#paint7_linear)"/>
</g>
<mask id="mask3" mask-type="alpha" maskUnits="userSpaceOnUse" x="0" y="16" width="33" height="17">
<mask id="path-11-inside-1" mask-type="luminance" fill="white">
<path d="M15.3986 31.1623L15.3985 31.1623C12.3243 32.3058 10.7871 32.8776 9.54914 32.9595C5.60374 33.2208 2.00114 30.7254 0.836832 26.9384L0.84853 26.9769L0.82988 26.9156C0.832188 26.9232 0.834505 26.9308 0.836832 26.9384L0.789945 26.7839C0.734055 26.5999 0.578621 26.0763 0.544155 25.8363C0.500003 25.5287 0.5 25.1817 0.5 25.1817V24.8956C0.54388 23.9133 0.632214 23.1976 0.810041 22.5965C1.94498 18.7597 5.57297 16.2232 9.54914 16.4865C10.7871 16.5685 12.3242 17.1402 15.3985 18.2837L15.3986 18.2837L32.711 24.723L15.3986 31.1623Z"/>
</mask>
<path d="M-0.791762 27.4756L-0.790573 27.4795L2.49001 26.4821L2.48882 26.4782L-0.791762 27.4756ZM15.3986 31.1623L16.56 34.3884L16.577 34.3823L16.594 34.376L15.3986 31.1623ZM15.3985 31.1623L14.2371 27.9362L14.2201 27.9423L14.2032 27.9486L15.3985 31.1623ZM9.54914 32.9595L9.77568 36.3809H9.77569L9.54914 32.9595ZM0.82988 26.9156L4.11003 25.9169L-2.45029 27.9143L0.82988 26.9156ZM15.3986 18.2837L14.1947 21.4943L14.2033 21.4975L15.3986 18.2837ZM15.3985 18.2837L16.6025 15.0732L16.5939 15.07L15.3985 18.2837ZM9.54914 16.4865L9.77569 13.0652L9.54914 16.4865ZM0.810041 22.5965L4.09804 23.5691L4.09804 23.5691L0.810041 22.5965ZM32.711 24.723L33.9063 27.9367L42.5466 24.723L33.9063 21.5093L32.711 24.723ZM0.5 24.8956L-2.92542 24.7426L-2.92883 24.8191V24.8956H0.5ZM0.789945 26.7839L-2.49099 27.7801L-2.49099 27.7801L0.789945 26.7839ZM0.544155 25.8363L-2.84987 26.3236L-2.84987 26.3236L0.544155 25.8363ZM0.5 25.1817H-2.92883V25.1817L0.5 25.1817ZM0.84853 26.9769L-2.43162 27.9757L4.12946 25.9807L0.84853 26.9769ZM14.2372 27.9362L14.2371 27.9362L16.56 34.3885L16.56 34.3884L14.2372 27.9362ZM14.2032 27.9486C12.6358 28.5316 11.5691 28.9274 10.7381 29.194C9.90762 29.4603 9.52601 29.5247 9.32258 29.5382L9.77569 36.3809C10.8102 36.3124 11.8161 36.0499 12.8323 35.724C13.848 35.3983 15.087 34.9366 16.5939 34.3761L14.2032 27.9486ZM-2.45029 27.9143C-2.44709 27.9248 -2.44386 27.9354 -2.44059 27.946L4.11426 25.9307C4.11287 25.9262 4.11146 25.9216 4.11005 25.917L-2.45029 27.9143ZM-2.4406 27.946C-0.812253 33.2423 4.23326 36.7479 9.77568 36.3809L9.32259 29.5382C6.97422 29.6937 4.81454 28.2084 4.11426 25.9307L-2.4406 27.946ZM16.6026 15.0732L16.6025 15.0732L14.1946 21.4942L14.1947 21.4942L16.6026 15.0732ZM16.5939 15.07C15.0869 14.5095 13.8479 14.0477 12.8323 13.722C11.8161 13.3961 10.8102 13.1337 9.77569 13.0652L9.32259 19.9078C9.52601 19.9213 9.90762 19.9857 10.7381 20.2521C11.5691 20.5186 12.6358 20.9145 14.2032 21.4974L16.5939 15.07ZM4.09804 23.5691C4.78084 21.2608 6.95587 19.7511 9.32259 19.9078L9.77569 13.0652C4.19008 12.6953 -0.89088 16.2587 -2.47796 21.6239L4.09804 23.5691ZM33.9063 21.5093L16.594 15.07L14.2033 21.4975L31.5156 27.9367L33.9063 21.5093ZM31.5156 21.5093L14.2033 27.9486L16.594 34.376L33.9063 27.9367L31.5156 21.5093ZM3.92542 25.0486C3.96505 24.1615 4.038 23.7721 4.09804 23.5691L-2.47796 21.6239C-2.77357 22.6232 -2.87729 23.6651 -2.92542 24.7426L3.92542 25.0486ZM4.07088 25.7878C4.04735 25.7103 4.005 25.5681 3.96704 25.4289C3.94801 25.3591 3.93425 25.3053 3.92585 25.2698C3.9218 25.2527 3.92103 25.2484 3.92235 25.2549C3.92302 25.2582 3.93011 25.2928 3.93818 25.349L-2.84987 26.3236C-2.76937 26.8843 -2.51437 27.7031 -2.49099 27.7801L4.07088 25.7878ZM3.93818 25.349C3.93877 25.353 3.93419 25.3145 3.93103 25.2426C3.92977 25.2141 3.92919 25.1908 3.92894 25.1773C3.92882 25.1709 3.92879 25.1675 3.92879 25.1678C3.9288 25.168 3.92881 25.1692 3.92882 25.1715C3.92882 25.1726 3.92882 25.174 3.92883 25.1757C3.92883 25.1765 3.92883 25.1774 3.92883 25.1784C3.92883 25.1789 3.92883 25.1794 3.92883 25.18C3.92883 25.1802 3.92883 25.1805 3.92883 25.1808C3.92883 25.1809 3.92883 25.1811 3.92883 25.1812C3.92883 25.1814 3.92883 25.1816 0.5 25.1817C-2.92883 25.1817 -2.92883 25.1819 -2.92883 25.1821C-2.92883 25.1822 -2.92883 25.1824 -2.92883 25.1825C-2.92883 25.1828 -2.92883 25.1831 -2.92883 25.1835C-2.92883 25.1841 -2.92883 25.1847 -2.92883 25.1854C-2.92883 25.1867 -2.92883 25.1881 -2.92883 25.1896C-2.92882 25.1926 -2.92881 25.196 -2.92879 25.1998C-2.92876 25.2073 -2.92871 25.2162 -2.92862 25.2265C-2.92845 25.247 -2.92813 25.2732 -2.92756 25.304C-2.92643 25.3653 -2.92425 25.4479 -2.91999 25.5446C-2.91211 25.7232 -2.89461 26.012 -2.84987 26.3236L3.93818 25.349ZM3.92883 25.1817V24.8956H-2.92883V25.1817H3.92883ZM-2.45027 27.9144L-2.43162 27.9757L4.12868 25.9781L4.11003 25.9169L-2.45027 27.9144ZM-2.49099 27.7801L-2.44411 27.9345L4.11777 25.9422L4.07088 25.7878L-2.49099 27.7801ZM-2.4441 27.9345L-2.4324 27.9731L4.12946 25.9807L4.11777 25.9422L-2.4441 27.9345Z" fill="white" mask="url(#path-11-inside-1)"/>
<path d="M-0.791762 27.4756L-0.790573 27.4795L2.49001 26.4821L2.48882 26.4782L-0.791762 27.4756ZM15.3986 31.1623L16.56 34.3884L16.577 34.3823L16.594 34.376L15.3986 31.1623ZM15.3985 31.1623L14.2371 27.9362L14.2201 27.9423L14.2032 27.9486L15.3985 31.1623ZM9.54914 32.9595L9.77568 36.3809H9.77569L9.54914 32.9595ZM0.82988 26.9156L4.11003 25.9169L-2.45029 27.9143L0.82988 26.9156ZM15.3986 18.2837L14.1947 21.4943L14.2033 21.4975L15.3986 18.2837ZM15.3985 18.2837L16.6025 15.0732L16.5939 15.07L15.3985 18.2837ZM9.54914 16.4865L9.77569 13.0652L9.54914 16.4865ZM0.810041 22.5965L4.09804 23.5691L4.09804 23.5691L0.810041 22.5965ZM32.711 24.723L33.9063 27.9367L42.5466 24.723L33.9063 21.5093L32.711 24.723ZM0.5 24.8956L-2.92542 24.7426L-2.92883 24.8191V24.8956H0.5ZM0.789945 26.7839L-2.49099 27.7801L-2.49099 27.7801L0.789945 26.7839ZM0.544155 25.8363L-2.84987 26.3236L-2.84987 26.3236L0.544155 25.8363ZM0.5 25.1817H-2.92883V25.1817L0.5 25.1817ZM0.84853 26.9769L-2.43162 27.9757L4.12946 25.9807L0.84853 26.9769ZM14.2372 27.9362L14.2371 27.9362L16.56 34.3885L16.56 34.3884L14.2372 27.9362ZM14.2032 27.9486C12.6358 28.5316 11.5691 28.9274 10.7381 29.194C9.90762 29.4603 9.52601 29.5247 9.32258 29.5382L9.77569 36.3809C10.8102 36.3124 11.8161 36.0499 12.8323 35.724C13.848 35.3983 15.087 34.9366 16.5939 34.3761L14.2032 27.9486ZM-2.45029 27.9143C-2.44709 27.9248 -2.44386 27.9354 -2.44059 27.946L4.11426 25.9307C4.11287 25.9262 4.11146 25.9216 4.11005 25.917L-2.45029 27.9143ZM-2.4406 27.946C-0.812253 33.2423 4.23326 36.7479 9.77568 36.3809L9.32259 29.5382C6.97422 29.6937 4.81454 28.2084 4.11426 25.9307L-2.4406 27.946ZM16.6026 15.0732L16.6025 15.0732L14.1946 21.4942L14.1947 21.4942L16.6026 15.0732ZM16.5939 15.07C15.0869 14.5095 13.8479 14.0477 12.8323 13.722C11.8161 13.3961 10.8102 13.1337 9.77569 13.0652L9.32259 19.9078C9.52601 19.9213 9.90762 19.9857 10.7381 20.2521C11.5691 20.5186 12.6358 20.9145 14.2032 21.4974L16.5939 15.07ZM4.09804 23.5691C4.78084 21.2608 6.95587 19.7511 9.32259 19.9078L9.77569 13.0652C4.19008 12.6953 -0.89088 16.2587 -2.47796 21.6239L4.09804 23.5691ZM33.9063 21.5093L16.594 15.07L14.2033 21.4975L31.5156 27.9367L33.9063 21.5093ZM31.5156 21.5093L14.2033 27.9486L16.594 34.376L33.9063 27.9367L31.5156 21.5093ZM3.92542 25.0486C3.96505 24.1615 4.038 23.7721 4.09804 23.5691L-2.47796 21.6239C-2.77357 22.6232 -2.87729 23.6651 -2.92542 24.7426L3.92542 25.0486ZM4.07088 25.7878C4.04735 25.7103 4.005 25.5681 3.96704 25.4289C3.94801 25.3591 3.93425 25.3053 3.92585 25.2698C3.9218 25.2527 3.92103 25.2484 3.92235 25.2549C3.92302 25.2582 3.93011 25.2928 3.93818 25.349L-2.84987 26.3236C-2.76937 26.8843 -2.51437 27.7031 -2.49099 27.7801L4.07088 25.7878ZM3.93818 25.349C3.93877 25.353 3.93419 25.3145 3.93103 25.2426C3.92977 25.2141 3.92919 25.1908 3.92894 25.1773C3.92882 25.1709 3.92879 25.1675 3.92879 25.1678C3.9288 25.168 3.92881 25.1692 3.92882 25.1715C3.92882 25.1726 3.92882 25.174 3.92883 25.1757C3.92883 25.1765 3.92883 25.1774 3.92883 25.1784C3.92883 25.1789 3.92883 25.1794 3.92883 25.18C3.92883 25.1802 3.92883 25.1805 3.92883 25.1808C3.92883 25.1809 3.92883 25.1811 3.92883 25.1812C3.92883 25.1814 3.92883 25.1816 0.5 25.1817C-2.92883 25.1817 -2.92883 25.1819 -2.92883 25.1821C-2.92883 25.1822 -2.92883 25.1824 -2.92883 25.1825C-2.92883 25.1828 -2.92883 25.1831 -2.92883 25.1835C-2.92883 25.1841 -2.92883 25.1847 -2.92883 25.1854C-2.92883 25.1867 -2.92883 25.1881 -2.92883 25.1896C-2.92882 25.1926 -2.92881 25.196 -2.92879 25.1998C-2.92876 25.2073 -2.92871 25.2162 -2.92862 25.2265C-2.92845 25.247 -2.92813 25.2732 -2.92756 25.304C-2.92643 25.3653 -2.92425 25.4479 -2.91999 25.5446C-2.91211 25.7232 -2.89461 26.012 -2.84987 26.3236L3.93818 25.349ZM3.92883 25.1817V24.8956H-2.92883V25.1817H3.92883ZM-2.45027 27.9144L-2.43162 27.9757L4.12868 25.9781L4.11003 25.9169L-2.45027 27.9144ZM-2.49099 27.7801L-2.44411 27.9345L4.11777 25.9422L4.07088 25.7878L-2.49099 27.7801ZM-2.4441 27.9345L-2.4324 27.9731L4.12946 25.9807L4.11777 25.9422L-2.4441 27.9345Z" fill="url(#paint8_linear)" mask="url(#path-11-inside-1)"/>
</mask>
<g mask="url(#mask3)">
<rect x="-0.738281" y="14.2578" width="18.2086" height="18.853" fill="white"/>
<rect x="-0.738281" y="14.2578" width="18.2086" height="18.853" fill="#FF6720"/>
</g>
<defs>
<linearGradient id="paint0_linear" x1="10.018" y1="32.1572" x2="31.3697" y2="7.47309" gradientUnits="userSpaceOnUse">
<stop stop-color="#FF8506"/>
<stop offset="0.5805" stop-color="#FD3947"/>
<stop offset="1" stop-color="#FB0078"/>
</linearGradient>
<linearGradient id="paint1_linear" x1="38.9038" y1="17.5176" x2="29.5489" y2="17.976" gradientUnits="userSpaceOnUse">
<stop stop-color="#FB126A" stop-opacity="0"/>
<stop offset="0.1389" stop-color="#F41169" stop-opacity="0.1389"/>
<stop offset="0.3365" stop-color="#E20F67" stop-opacity="0.3365"/>
<stop offset="0.5694" stop-color="#C30A64" stop-opacity="0.5694"/>
<stop offset="0.827" stop-color="#99045F" stop-opacity="0.827"/>
<stop offset="1" stop-color="#78005B"/>
</linearGradient>
<linearGradient id="paint2_linear" x1="18.4399" y1="27.7249" x2="26.2072" y2="29.8627" gradientUnits="userSpaceOnUse">
<stop stop-color="#FB126A" stop-opacity="0"/>
<stop offset="0.1389" stop-color="#F41169" stop-opacity="0.1389"/>
<stop offset="0.3365" stop-color="#E20F67" stop-opacity="0.3365"/>
<stop offset="0.5694" stop-color="#C30A64" stop-opacity="0.5694"/>
<stop offset="0.827" stop-color="#99045F" stop-opacity="0.827"/>
<stop offset="1" stop-color="#78005B"/>
</linearGradient>
<linearGradient id="paint3_linear" x1="10.0209" y1="17.2886" x2="31.3727" y2="41.9727" gradientUnits="userSpaceOnUse">
<stop stop-color="#FF8506"/>
<stop offset="0.5805" stop-color="#FD3947"/>
<stop offset="1" stop-color="#FB0078"/>
</linearGradient>
<linearGradient id="paint4_linear" x1="5.89454" y1="42.4066" x2="5.89454" y2="28.1159" gradientUnits="userSpaceOnUse">
<stop stop-color="#FF7E0D" stop-opacity="0"/>
<stop offset="0.0133" stop-color="#F97910" stop-opacity="0.0192"/>
<stop offset="0.1144" stop-color="#D25427" stop-opacity="0.1659"/>
<stop offset="0.219" stop-color="#B1363A" stop-opacity="0.3175"/>
<stop offset="0.3263" stop-color="#981E48" stop-opacity="0.4731"/>
<stop offset="0.4375" stop-color="#860D53" stop-opacity="0.6344"/>
<stop offset="0.5551" stop-color="#7B0359" stop-opacity="0.8048"/>
<stop offset="0.6897" stop-color="#78005B"/>
</linearGradient>
<linearGradient id="paint5_linear" x1="5.89749" y1="41.6258" x2="11.0252" y2="36.935" gradientUnits="userSpaceOnUse">
<stop stop-color="#FF7E0D" stop-opacity="0"/>
<stop offset="0.0133" stop-color="#F97910" stop-opacity="0.0192"/>
<stop offset="0.1144" stop-color="#D25427" stop-opacity="0.1659"/>
<stop offset="0.219" stop-color="#B1363A" stop-opacity="0.3175"/>
<stop offset="0.3263" stop-color="#981E48" stop-opacity="0.4731"/>
<stop offset="0.4375" stop-color="#860D53" stop-opacity="0.6344"/>
<stop offset="0.5551" stop-color="#7B0359" stop-opacity="0.8048"/>
<stop offset="0.6897" stop-color="#78005B"/>
</linearGradient>
<linearGradient id="paint6_linear" x1="5.8975" y1="7.47618" x2="5.89749" y2="21.7669" gradientUnits="userSpaceOnUse">
<stop stop-color="#FF7E0D" stop-opacity="0"/>
<stop offset="0.0133" stop-color="#F97910" stop-opacity="0.0192"/>
<stop offset="0.1144" stop-color="#D25427" stop-opacity="0.1659"/>
<stop offset="0.219" stop-color="#B1363A" stop-opacity="0.3175"/>
<stop offset="0.3263" stop-color="#981E48" stop-opacity="0.4731"/>
<stop offset="0.4375" stop-color="#860D53" stop-opacity="0.6344"/>
<stop offset="0.5551" stop-color="#7B0359" stop-opacity="0.8048"/>
<stop offset="0.6897" stop-color="#78005B"/>
</linearGradient>
<linearGradient id="paint7_linear" x1="1.70316" y1="11.9075" x2="6.83088" y2="7.21678" gradientUnits="userSpaceOnUse">
<stop stop-color="#FF7E0D" stop-opacity="0"/>
<stop offset="0.0133" stop-color="#F97910" stop-opacity="0.0192"/>
<stop offset="0.1144" stop-color="#D25427" stop-opacity="0.1659"/>
<stop offset="0.219" stop-color="#B1363A" stop-opacity="0.3175"/>
<stop offset="0.3263" stop-color="#981E48" stop-opacity="0.4731"/>
<stop offset="0.4375" stop-color="#860D53" stop-opacity="0.6344"/>
<stop offset="0.5551" stop-color="#7B0359" stop-opacity="0.8048"/>
<stop offset="0.6897" stop-color="#78005B"/>
</linearGradient>
<linearGradient id="paint8_linear" x1="5.66191" y1="31.4785" x2="13.4596" y2="14.6243" gradientUnits="userSpaceOnUse">
<stop stop-color="#FF8506"/>
<stop offset="0.5805" stop-color="#FD3947"/>
<stop offset="1" stop-color="#FB0078"/>
</linearGradient>
</defs>
</svg>
