<svg width="345" height="346" viewBox="0 0 345 346" fill="none" xmlns="http://www.w3.org/2000/svg">
<circle opacity="0.4" cx="172.5" cy="172.92" r="172.5" fill="url(#paint0_radial)"/>
<path d="M336.557 119.614C342.151 136.83 345 154.819 345 172.92H341.55C341.55 155.181 338.758 137.552 333.276 120.681L336.557 119.614Z" fill="#A81E41"/>
<path d="M225.805 8.86268C251.695 17.2748 275.227 31.6949 294.476 50.944C313.725 70.1931 328.145 93.7246 336.557 119.614L320.152 124.945C312.581 101.644 299.603 80.4658 282.278 63.1416C264.954 45.8174 243.776 32.8393 220.475 25.2684L225.805 8.86268Z" fill="#A81E41"/>
<path d="M345 172.92C345 209.348 333.468 244.842 312.055 274.313C290.643 303.784 260.451 325.72 225.805 336.977C191.16 348.234 153.84 348.234 119.195 336.977C84.5491 325.72 54.3566 303.784 32.9446 274.313C11.5325 244.842 -3.18467e-06 209.348 0 172.92C3.18467e-06 136.491 11.5325 100.998 32.9446 71.527C54.3567 42.0557 84.5491 20.1197 119.195 8.86267C153.84 -2.39433 191.16 -2.39433 225.805 8.86268L209.814 58.0799C185.562 50.1999 159.438 50.1999 135.186 58.0798C110.934 65.9597 89.7997 81.315 74.8112 101.945C59.8227 122.575 51.75 147.42 51.75 172.92C51.75 198.42 59.8227 223.265 74.8112 243.895C89.7997 264.525 110.934 279.88 135.186 287.76C159.438 295.64 185.562 295.64 209.814 287.76C234.066 279.88 255.2 264.525 270.189 243.895C285.177 223.265 293.25 198.42 293.25 172.92H345Z" fill="#A81E41"/>
<mask id="path-5-inside-1" fill="white">
<path d="M336.557 119.614C342.151 136.83 345 154.819 345 172.92L172.5 172.92L336.557 119.614Z"/>
</mask>
<path d="M336.557 119.614C342.151 136.83 345 154.819 345 172.92L172.5 172.92L336.557 119.614Z" stroke="url(#paint1_linear)" stroke-width="2" mask="url(#path-5-inside-1)"/>
<mask id="path-6-inside-2" fill="white">
<path d="M225.805 8.86268C251.695 17.2748 275.227 31.6949 294.476 50.944C313.725 70.1931 328.145 93.7246 336.557 119.614L172.5 172.92L225.805 8.86268Z"/>
</mask>
<path d="M225.805 8.86268C251.695 17.2748 275.227 31.6949 294.476 50.944C313.725 70.1931 328.145 93.7246 336.557 119.614L172.5 172.92L225.805 8.86268Z" stroke="url(#paint2_linear)" stroke-width="2" mask="url(#path-6-inside-2)"/>
<mask id="path-7-inside-3" fill="white">
<path d="M345 172.92C345 209.348 333.468 244.842 312.055 274.313C290.643 303.784 260.451 325.72 225.805 336.977C191.16 348.234 153.84 348.234 119.195 336.977C84.5491 325.72 54.3566 303.784 32.9446 274.313C11.5325 244.842 -3.18467e-06 209.348 0 172.92C3.18467e-06 136.491 11.5325 100.998 32.9446 71.527C54.3567 42.0557 84.5491 20.1197 119.195 8.86267C153.84 -2.39433 191.16 -2.39433 225.805 8.86268L172.5 172.92H345Z"/>
</mask>
<path d="M345 172.92C345 209.348 333.468 244.842 312.055 274.313C290.643 303.784 260.451 325.72 225.805 336.977C191.16 348.234 153.84 348.234 119.195 336.977C84.5491 325.72 54.3566 303.784 32.9446 274.313C11.5325 244.842 -3.18467e-06 209.348 0 172.92C3.18467e-06 136.491 11.5325 100.998 32.9446 71.527C54.3567 42.0557 84.5491 20.1197 119.195 8.86267C153.84 -2.39433 191.16 -2.39433 225.805 8.86268L172.5 172.92H345Z" stroke="url(#paint3_linear)" stroke-width="2" mask="url(#path-7-inside-3)"/>
<defs>
<radialGradient id="paint0_radial" cx="0" cy="0" r="1" gradientUnits="userSpaceOnUse" gradientTransform="translate(172 173.42) rotate(-114.69) scale(149.73)">
<stop stop-color="#A81E41" stop-opacity="0"/>
<stop offset="1" stop-color="#A81E41"/>
</radialGradient>
<linearGradient id="paint1_linear" x1="345" y1="173.42" x2="6.00001" y2="173.42" gradientUnits="userSpaceOnUse">
<stop stop-color="#FF99B1"/>
<stop offset="1" stop-color="#EC849C" stop-opacity="0"/>
</linearGradient>
<linearGradient id="paint2_linear" x1="336" y1="120.92" x2="31.5" y2="217.42" gradientUnits="userSpaceOnUse">
<stop stop-color="#FF99B1"/>
<stop offset="1" stop-color="#EC849C" stop-opacity="0"/>
</linearGradient>
<linearGradient id="paint3_linear" x1="227.5" y1="0.419921" x2="121.5" y2="326.92" gradientUnits="userSpaceOnUse">
<stop stop-color="#FF99B1"/>
<stop offset="1" stop-color="#EC849C" stop-opacity="0"/>
</linearGradient>
</defs>
</svg>
