<svg width="110" height="110" viewBox="0 0 110 110" fill="none" xmlns="http://www.w3.org/2000/svg">
<path d="M54.8328 0.621109C69.3893 0.62111 83.0762 6.29026 93.3693 16.5834C103.665 26.8765 109.334 40.5633 109.334 55.1199C109.334 69.6764 103.665 83.3657 93.3717 93.6588C83.0786 103.952 69.3918 109.621 54.8328 109.621C40.2738 109.621 26.5894 103.952 16.2963 93.6588C6.00313 83.3657 0.333983 69.6789 0.333984 55.1223C0.333985 40.5658 6.00314 26.8789 16.2963 16.5858C26.5894 6.29025 40.2762 0.621108 54.8328 0.621109ZM54.8328 105.918C68.4002 105.918 81.1588 100.634 90.7528 91.0399C100.347 81.4459 105.631 68.6898 105.631 55.1199C105.631 41.55 100.347 28.7938 90.7528 19.1999C81.1588 9.60599 68.4027 4.32177 54.8328 4.32177C41.2629 4.32177 28.5067 9.60598 18.9128 19.1999C9.31886 28.7938 4.03465 41.55 4.03465 55.1199C4.03465 68.6898 9.31886 81.4435 18.9128 91.0399C28.5092 100.634 41.2653 105.918 54.8328 105.918Z" fill="url(#paint0_linear)"/>
<path d="M54.834 106.105C82.9916 106.105 105.818 83.2787 105.818 55.1211C105.818 26.9635 82.9916 4.13721 54.834 4.13721C26.6764 4.13721 3.8501 26.9635 3.8501 55.1211C3.8501 83.2787 26.6764 106.105 54.834 106.105Z" fill="#121212"/>
<path d="M72.0607 43.7802C70.8523 43.0897 69.2987 43.0897 67.9177 43.7802L58.2508 49.4767L51.6911 53.1018L42.1969 58.7984C40.9885 59.4889 39.4349 59.4889 38.0539 58.7984L30.6311 54.3102C29.4228 53.6197 28.5597 52.2387 28.5597 50.6851V42.0539C28.5597 40.673 29.2502 39.292 30.6311 38.4289L38.0539 34.1133C39.2623 33.4228 40.8159 33.4228 42.1969 34.1133L49.6197 38.6015C50.828 39.292 51.6911 40.673 51.6911 42.2266V47.9231L58.2508 44.1254V38.2562C58.2508 36.8752 57.5603 35.4943 56.1793 34.6311L42.3695 26.5179C41.1611 25.8274 39.6075 25.8274 38.2266 26.5179L24.0715 34.8038C22.6905 35.4943 22 36.8752 22 38.2562V54.4828C22 55.8638 22.6905 57.2448 24.0715 58.1079L38.0539 66.2211C39.2623 66.9116 40.8159 66.9116 42.1969 66.2211L51.6911 60.6972L58.2508 56.8995L67.7451 51.3756C68.9534 50.6851 70.507 50.6851 71.888 51.3756L79.3108 55.6911C80.5192 56.3816 81.3823 57.7626 81.3823 59.3162V67.9474C81.3823 69.3284 80.6918 70.7093 79.3108 71.5725L72.0607 75.888C70.8523 76.5785 69.2987 76.5785 67.9177 75.888L60.4949 71.5725C59.2866 70.882 58.4234 69.501 58.4234 67.9474V62.4234L51.8638 66.2211V71.9177C51.8638 73.2987 52.5543 74.6797 53.9352 75.5428L67.9177 83.6561C69.1261 84.3466 70.6797 84.3466 72.0607 83.6561L86.0431 75.5428C87.2515 74.8523 88.1146 73.4713 88.1146 71.9177V55.5185C88.1146 54.1375 87.4241 52.7566 86.0431 51.8934L72.0607 43.7802Z" fill="#8247E5"/>
<defs>
<linearGradient id="paint0_linear" x1="93.3713" y1="16.5837" x2="16.2965" y2="93.6584" gradientUnits="userSpaceOnUse">
<stop/>
<stop offset="1" stop-color="#515151"/>
</linearGradient>
</defs>
</svg>
